<?xml version="1.0" encoding="UTF-8"?>
<svg xmlns:xodm="http://www.corel.com/coreldraw/odm/2003" xmlns="http://www.w3.org/2000/svg" xmlns:xlink="http://www.w3.org/1999/xlink" version="1.1" id="Layer_1" x="0px" y="0px" viewBox="0 0 2500 2500" style="enable-background:new 0 0 2500 2500;" xml:space="preserve">
<style type="text/css">
	.st0{fill-rule:evenodd;clip-rule:evenodd;fill:#F0B90B;}
	.st1{fill:#FFFFFF;}
	.st2{fill:none;}
</style>
<g id="Layer_x0020_1">
	<g id="_2085553985280">
		<g>
			<path class="st0" d="M1250,0c690.4,0,1250,559.6,1250,1250s-559.6,1250-1250,1250S0,1940.4,0,1250S559.6,0,1250,0L1250,0z"></path>
			<path class="st1" d="M687,1250l0.9,330.5l280.8,165.3v193.5l-445.2-261.1v-524.8L687,1250L687,1250L687,1250z M687,919.5v192.6     l-163.6-96.8V822.7L687,726l164.4,96.8L687,919.5L687,919.5z M1086,822.7l163.6-96.8l164.4,96.8l-164.4,96.8L1086,822.7     L1086,822.7z"></path>
			<path class="st1" d="M805.2,1512v-193.5l163.6,96.8v192.6L805.2,1512L805.2,1512z M1086,1815.1l163.6,96.8l164.4-96.8v192.6     l-164.4,96.8l-163.6-96.8V1815.1L1086,1815.1z M1648.5,822.7l163.6-96.8l164.4,96.8v192.6l-164.4,96.8V919.5L1648.5,822.7     L1648.5,822.7L1648.5,822.7z M1812.1,1580.5l0.9-330.5l163.6-96.8v524.8l-445.2,261.1v-193.5L1812.1,1580.5L1812.1,1580.5     L1812.1,1580.5z"></path>
			<polygon class="st1" points="1694.8,1512 1531.2,1607.9 1531.2,1415.3 1694.8,1318.5    "></polygon>
			<path class="st1" d="M1694.8,988l0.9,193.5l-281.7,165.3v331.3l-163.6,95.9l-163.6-95.9v-331.3l-281.7-165.3V988l164.3-96.8     l280,166.1l281.7-166.1l164.4,96.8L1694.8,988L1694.8,988L1694.8,988z M805.2,657.5l444.4-262l445.2,262l-163.6,96.8     l-281.7-166.1L968.8,754.3L805.2,657.5L805.2,657.5L805.2,657.5z"></path>
		</g>
	</g>
	<rect y="0" class="st2" width="2500" height="2500"></rect>
</g>
</svg>
