<?xml version="1.0" encoding="UTF-8"?>
<svg xmlns:xodm="http://www.corel.com/coreldraw/odm/2003" xmlns="http://www.w3.org/2000/svg" xmlns:xlink="http://www.w3.org/1999/xlink" version="1.1" id="Layer_1" x="0px" y="0px" viewBox="0 0 2500 2500" style="enable-background:new 0 0 2500 2500;" xml:space="preserve">
<style type="text/css">
	.st0{fill:#F7931A;}
	.st1{fill:#FFFFFF;}
</style>
<g id="Layer_x0020_1">
	<g id="Layer_x0020_1_0">
		<g id="_2525147321840">
			<path class="st0" d="M2462.6,1552.4c-167,669.7-845.3,1077.2-1515.1,910.2C278,2295.6-129.6,1617.3,37.4,947.8     C204.3,278,882.7-129.5,1552.3,37.4C2222,204.4,2629.6,882.7,2462.6,1552.4L2462.6,1552.4L2462.6,1552.4L2462.6,1552.4z"></path>
			<path class="st1" d="M1801.3,1071.9c24.9-166.3-101.8-255.8-275-315.4l56.2-225.3L1445.3,497l-54.7,219.4     c-36.1-9-73.1-17.5-109.9-25.9l55.1-220.9l-137.1-34.2l-56.2,225.3c-29.8-6.8-59.2-13.5-87.6-20.6l0.2-0.7l-189.2-47.2     l-36.5,146.5c0,0,101.8,23.3,99.6,24.8c55.5,13.9,65.6,50.6,63.9,79.8l-64,256.7c-0.1,0.3-0.1,0.3-0.2,1L839,1460.6     c-6.8,16.9-24,42.2-62.9,32.6c1.4,2-99.7-24.9-99.7-24.9l-68.1,157l178.5,44.5c33.2,8.3,65.8,17,97.8,25.2l-56.8,227.9l137,34.2     l56.2-225.5c37.4,10.2,73.8,19.5,109.3,28.4l-56,224.4l137.2,34.2l56.8-227.5c233.9,44.3,409.8,26.4,483.8-185.1     c59.7-170.3-3-268.6-126-332.7C1715.8,1252.6,1783.3,1193.7,1801.3,1071.9L1801.3,1071.9L1801.3,1071.9L1801.3,1071.9     L1801.3,1071.9z M1487.8,1511.4c-42.4,170.3-329.2,78.3-422.2,55.2l75.3-301.9C1233.9,1287.8,1532.1,1333.7,1487.8,1511.4     L1487.8,1511.4L1487.8,1511.4L1487.8,1511.4z M1530.3,1069.4c-38.7,154.9-277.4,76.2-354.8,56.9l68.3-273.8     C1321.2,871.8,1570.5,907.8,1530.3,1069.4L1530.3,1069.4L1530.3,1069.4z"></path>
		</g>
	</g>
</g>
</svg>
