<svg width="32" height="32" viewBox="0 0 32 32" xmlns="http://www.w3.org/2000/svg">
  <g fill="none" fillRule="evenodd">
    <circle cx="16" cy="16" r="16" fill="#F3BA2F"/>
    <path fill="#FFF" d="M12.116 14.404L16 10.52l3.886 3.886 2.26-2.26L16 6l-6.144 6.144 2.26 2.26zM6 16l2.26-2.26L10.52 16l-2.26 2.26L6 16zm6.116 1.596L16 21.48l3.886-3.886 2.26 2.26L16 26l-6.144-6.144-2.26-2.26zm9.764-5.6L26 16l-2.26 2.26L21.48 16l2.26-2.26zm-3.764 4L16 18.08l-2.116-2.08L16 13.92l2.116 2.08z"/>
  </g>
</svg>